<mxfile host="app.diagrams.net" modified="2023-12-03T03:07:45.974Z" agent="Mozilla/5.0 (Windows NT 10.0; Win64; x64) AppleWebKit/537.36 (KHTML, like Gecko) Chrome/119.0.0.0 Safari/537.36" version="22.1.5" etag="ChlfGHzSnVqJv8MYaWYZ" type="github">
  <diagram name="Page-1" id="HN7RCe4hqeS9qzxd0_m_">
    <mxGraphModel>
      <root>
        <mxCell id="0" />
        <mxCell id="1" parent="0" />
      </root>
    </mxGraphModel>
  </diagram>
</mxfile>
